<svg xmlns="http://www.w3.org/2000/svg" aria-hidden="true" focusable="false" data-prefix="fas" data-icon="times" role="img" width="352" height="512"><rect id="backgroundrect" width="100%" height="100%" x="0" y="0" fill="none" stroke="none"/><g class="currentLayer" style=""><title>Layer 1</title><path fill="#66bb6a" d="M242.72,255.21875 l100.07,-100.07 c12.28,-12.28 12.28,-32.19 0,-44.48 l-22.24,-22.24 c-12.28,-12.28 -32.19,-12.28 -44.48,0 L176,188.49875 L75.93,88.42875 c-12.28,-12.28 -32.19,-12.28 -44.48,0 L9.21,110.66875 c-12.28,12.28 -12.28,32.19 0,44.48 L109.28,255.21875 L9.21,355.28875 c-12.28,12.28 -12.28,32.19 0,44.48 l22.24,22.24 c12.28,12.28 32.2,12.28 44.48,0 L176,321.93875 l100.07,100.07 c12.28,12.28 32.2,12.28 44.48,0 l22.24,-22.24 c12.28,-12.28 12.28,-32.19 0,-44.48 L242.72,255.21875 z" id="svg_1" class="selected" fill-opacity="1"/></g></svg>