<?xml version="1.0" encoding="UTF-8"?>
<svg xmlns="http://www.w3.org/2000/svg" xmlns:xlink="http://www.w3.org/1999/xlink" width="20px" height="20px" viewBox="0 0 20 20" version="1.1">
<g id="surface1">
<path style=" stroke:none;fill-rule:nonzero;fill:rgb(33.333333%,33.333333%,33.333333%);fill-opacity:1;" d="M 11.25 1.25 L 11.25 2 C 14.101562 2.582031 16.25 5.101562 16.25 8.125 L 16.25 8.859375 C 16.25 10.699219 16.925781 12.46875 18.144531 13.84375 L 18.433594 14.167969 C 18.761719 14.539062 18.84375 15.0625 18.640625 15.511719 C 18.4375 15.960938 17.992188 16.25 17.5 16.25 L 2.5 16.25 C 2.007812 16.25 1.5625 15.960938 1.359375 15.511719 C 1.15625 15.0625 1.238281 14.539062 1.566406 14.167969 L 1.855469 13.84375 C 3.074219 12.46875 3.75 10.699219 3.75 8.859375 L 3.75 8.125 C 3.75 5.101562 5.863281 2.582031 8.75 2 L 8.75 1.25 C 8.75 0.558594 9.308594 0 10 0 C 10.691406 0 11.25 0.558594 11.25 1.25 Z M 10 20 C 9.335938 20 8.699219 19.738281 8.230469 19.269531 C 7.761719 18.800781 7.5 18.128906 7.5 17.5 L 12.5 17.5 C 12.5 18.128906 12.238281 18.800781 11.769531 19.269531 C 11.300781 19.738281 10.628906 20 10 20 Z M 10 20 "/>
</g>
</svg>
