<svg xmlns="http://www.w3.org/2000/svg" xmlns:se="http://svg-edit.googlecode.com" xmlns:xlink="http://www.w3.org/1999/xlink" xmlns:dc="http://purl.org/dc/elements/1.1/" xmlns:cc="http://creativecommons.org/ns#" xmlns:rdf="http://www.w3.org/1999/02/22-rdf-syntax-ns#" xmlns:inkscape="http://www.inkscape.org/namespaces/inkscape" width="130" height="129">
                                    <title>my vector image</title>
                                    <!-- Created with Vector Paint - http://www.vectorpaint.yaks.com/ https://chrome.google.com/webstore/detail/hnbpdiengicdefcjecjbnjnoifekhgdo -->
                                    <rect id="backgroundrect" width="100%" height="100%" x="0" y="0" fill="none" stroke="none" class="selected" style=""/>
                                <g style="" class="currentLayer"><title>Layer 1</title><path fill="#66bb6a" stroke-dashoffset="" fill-rule="nonzero" marker-start="" marker-mid="" marker-end="" id="svg_1" d="M28.270987149602064,52.69942674598221 L53.02140572403633,52.69942674598221 L53.02140572403633,27.94900573067453 L76.32057221749889,27.94900573067453 L76.32057221749889,52.69942674598221 L101.07098102842824,52.69942674598221 L101.07098102842824,75.99859323944835 L76.32057221749889,75.99859323944835 L76.32057221749889,100.74900205037662 L53.02140572403633,100.74900205037662 L53.02140572403633,75.99859323944835 L28.270987149602064,75.99859323944835 L28.270987149602064,52.69942674598221 z" style="color: rgb(0, 0, 0);" class=""/><path fill="#66bb6a" fill-opacity="1" stroke="none" stroke-opacity="1" stroke-width="1" stroke-dasharray="none" stroke-linejoin="miter" stroke-linecap="butt" stroke-dashoffset="" fill-rule="nonzero" opacity="0.35" marker-start="" marker-mid="" marker-end="" d="M-0.000003039836883544922,64.50000059604645 C-0.000003039836883544922,28.864641480024346 29.088394750218356,5.960464477539062e-7 64.99999696016312,5.960464477539062e-7 C100.91159917010788,5.960464477539062e-7 129.99999696016312,28.864641480024346 129.99999696016312,64.50000059604645 C129.99999696016312,100.13535971206855 100.91159917010788,129.00000059604645 64.99999696016312,129.00000059604645 C29.088394750218356,129.00000059604645 -0.000003039836883544922,100.13535971206855 -0.000003039836883544922,64.50000059604645 z" id="svg_6" class=""/></g></svg>