<svg xmlns="http://www.w3.org/2000/svg" xmlns:se="http://svg-edit.googlecode.com" xmlns:xlink="http://www.w3.org/1999/xlink" xmlns:dc="http://purl.org/dc/elements/1.1/" xmlns:cc="http://creativecommons.org/ns#" xmlns:rdf="http://www.w3.org/1999/02/22-rdf-syntax-ns#" xmlns:inkscape="http://www.inkscape.org/namespaces/inkscape" width="130" height="129">
                                    <title>my vector image</title>
                                    <!-- Created with Vector Paint - http://www.vectorpaint.yaks.com/ https://chrome.google.com/webstore/detail/hnbpdiengicdefcjecjbnjnoifekhgdo -->
                                    <rect id="backgroundrect" width="100%" height="100%" x="0" y="0" fill="none" stroke="none" class="selected" style=""/>
                                <g style="" class="currentLayer"><title>Layer 1</title><path fill="#66bb6a" fill-opacity="1" stroke="none" stroke-opacity="1" stroke-width="1" stroke-dasharray="none" stroke-linejoin="miter" stroke-linecap="butt" stroke-dashoffset="" fill-rule="nonzero" opacity="0.35" marker-start="" marker-mid="" marker-end="" d="M5.960464477539063e-8,64.50000423192978 C5.960464477539063e-8,28.864645115907678 29.088397849659884,0.000004231929779052734 65.00000005960464,0.000004231929779052734 C100.9116022695494,0.000004231929779052734 130.00000005960464,28.864645115907678 130.00000005960464,64.50000423192978 C130.00000005960464,100.13536334795188 100.9116022695494,129.00000423192978 65.00000005960464,129.00000423192978 C29.088397849659884,129.00000423192978 5.960464477539063e-8,100.13536334795188 5.960464477539063e-8,64.50000423192978 z" id="svg_6" class=""/><path fill="#66bb6a" stroke-dashoffset="" fill-rule="nonzero" marker-start="" marker-mid="" marker-end="" id="svg_2" d="M95.14109856547259,29.18989533601851 L84.95744735019798,22.789001088119704 C82.38745972081,21.175987775059838 79.00193737530458,21.952400899628117 77.38290535585418,24.52238852901604 L73.3684281923849,30.911245364133563 L92.85098078331691,43.14727545908586 L96.86846729998166,36.761427977163976 C98.48148061303817,34.188430994580614 97.7110861948604,30.79989929587984 95.14109856547259,29.18989533601851 zM38.70067937442059,86.1088016852348 L58.183231965349535,98.34483178019042 L89.93792688958479,47.79371679371451 L70.44634623906637,35.554677345566716 L38.70067937442059,86.1088016852348 zM35.724429063569914,101.65512029579281 L35.2940915565444,113.14784015133239 L45.46269600584213,107.77012599007199 L54.91206504129315,102.78061839109927 L36.11564497905272,90.9689070967816 L35.724429063569914,101.65512029579281 z" style="color: rgb(0, 0, 0);" class=""/><path fill="#66bb6a" stroke-dashoffset="" fill-rule="nonzero" marker-start="" marker-mid="" marker-end="" id="svg_4" d="M59.332807614285116,76.96614309176064 L58.35017502218227,76.34851320895869 C58.10219386566456,76.19287163999714 57.775520796481544,76.26778866386279 57.61929847539727,76.5157698203805 L57.23193680936146,77.13223819893703 L59.11183143148622,78.31290726497949 L59.499483473583666,77.69672926248464 C59.65512504254525,77.44845772990588 59.580788770802315,77.12149428466118 59.332807614285116,76.96614309176064 zM53.8868045809275,82.45831591889645 L55.766699203052326,83.63898498493887 L58.83074740395858,78.76124790392892 L56.94998165364876,77.58028846182476 L53.8868045809275,82.45831591889645 zM53.599622656107954,83.9583986525851 L53.55809887931338,85.06734483143858 L54.53927959110837,84.54844280954487 L55.451060424206105,84.06699929958475 L53.637371544101995,82.92727325821294 L53.599622656107954,83.9583986525851 z" style="color: rgb(0, 0, 0);" class=""/></g></svg>