<svg xmlns="http://www.w3.org/2000/svg" xmlns:se="http://svg-edit.googlecode.com" xmlns:xlink="http://www.w3.org/1999/xlink" xmlns:dc="http://purl.org/dc/elements/1.1/" xmlns:cc="http://creativecommons.org/ns#" xmlns:rdf="http://www.w3.org/1999/02/22-rdf-syntax-ns#" xmlns:inkscape="http://www.inkscape.org/namespaces/inkscape" width="130" height="129">
                                    <title>my vector image</title>
                                    <!-- Created with Vector Paint - http://www.vectorpaint.yaks.com/ https://chrome.google.com/webstore/detail/hnbpdiengicdefcjecjbnjnoifekhgdo -->
                                    <rect id="backgroundrect" width="100%" height="100%" x="0" y="0" fill="none" stroke="none" class="" style=""/>
                                <g style="" class="currentLayer"><title>Layer 1</title><path fill="#66bb6a" fill-opacity="1" stroke="none" stroke-opacity="1" stroke-width="1" stroke-dasharray="none" stroke-linejoin="miter" stroke-linecap="butt" stroke-dashoffset="" fill-rule="nonzero" opacity="0.35" marker-start="" marker-mid="" marker-end="" d="M-5.960464477539063e-8,63.07142972946167 C-5.960464477539063e-8,27.43607061343957 29.088397730450595,-1.42857027053833 64.99999994039536,-1.42857027053833 C100.91160215034012,-1.42857027053833 129.99999994039536,27.43607061343957 129.99999994039536,63.07142972946167 C129.99999994039536,98.70678884548377 100.91160215034012,127.57142972946167 64.99999994039536,127.57142972946167 C29.088397730450595,127.57142972946167 -5.960464477539063e-8,98.70678884548377 -5.960464477539063e-8,63.07142972946167 z" id="svg_6" class=""/><path fill="#66bb6a" stroke-dashoffset="" fill-rule="nonzero" opacity="0.82" marker-start="" marker-mid="" marker-end="" id="svg_1" d="M95.99930258204772,38.70500567860177 L81.82607316318447,38.70500567860177 L81.82607316318447,33.03571391105652 L46.39299961602654,33.03571391105652 L46.39299961602654,38.70500567860177 L32.219770197163456,38.70500567860177 C28.047171456250037,38.70500567860177 24.660714507102966,42.091462627748776 24.660714507102966,46.26406136866222 L24.660714507102966,85.47666276085045 C24.660714507102966,89.64926150176373 28.047171456250037,93.03571845091071 32.219770197163456,93.03571845091071 L95.99930258204772,93.03571845091071 C100.1719013229611,93.03571845091071 103.55835827210818,89.64926150176373 103.55835827210818,85.47666276085045 L103.55835827210818,46.26406136866222 C103.55835827210818,42.091462627748776 100.1719013229611,38.70500567860177 95.99930258204772,38.70500567860177 zM64.107646625683,88.77997009740675 C51.47646456759215,88.77997009740675 41.20370788480021,78.50343388676953 41.20370788480021,65.87225182867869 C41.20370788480021,53.24106977058801 51.47646456759215,42.96075403210591 64.107646625683,42.96075403210591 S87.019144422256,53.24106977058801 87.019144422256,65.87225182867869 C87.019144422256,78.50343388676953 76.735049155929,88.77997009740675 64.107646625683,88.77997009740675 zM64.107646625683,50.51603019432112 C55.62638614143529,50.51603019432112 48.755204519170476,57.39099134443096 48.755204519170476,65.86847230083382 C48.755204519170476,74.34973278508137 55.63016566928025,81.22091440734644 64.107646625683,81.22091440734644 C72.58890710993067,81.22091440734644 79.46008873219557,74.34973278508137 79.46008873219557,65.86847230083382 C79.46386826004064,57.39099134443096 72.5926866377759,50.51603019432112 64.107646625683,50.51603019432112 z" style="color: rgb(0, 0, 0);" class=""/><path fill="#66bb6a" stroke-dashoffset="" fill-rule="nonzero" opacity="0.35" marker-start="" marker-mid="" marker-end="" id="svg_3" d="M39.761996538297986,41.52970803444096 L39.63368186842605,41.52970803444096 L39.63368186842605,41.478382166492224 L39.31289519374626,41.478382166492224 L39.31289519374626,41.52970803444096 L39.18458052387432,41.52970803444096 C39.146804685064026,41.52970803444096 39.11614603327598,41.56036668622902 39.11614603327598,41.59814252503931 L39.11614603327598,41.9531464450183 C39.11614603327598,41.99092228382858 39.146804685064026,42.02158093561664 39.18458052387432,42.02158093561664 L39.761996538297986,42.02158093561664 C39.79977237710827,42.02158093561664 39.83043102889633,41.99092228382858 39.83043102889633,41.9531464450183 L39.83043102889633,41.59814252503931 C39.83043102889633,41.56036668622902 39.79977237710827,41.52970803444096 39.761996538297986,41.52970803444096 zM39.47327142246348,41.9830523174098 C39.35891738867369,41.9830523174098 39.26591491595048,41.89001562744133 39.26591491595048,41.77566159365146 C39.26591491595048,41.66130755986161 39.35891738867369,41.568236652647855 39.47327142246348,41.568236652647855 S39.68069636346715,41.66130755986161 39.68069636346715,41.77566159365146 C39.68069636346715,41.89001562744133 39.58759123900802,41.9830523174098 39.47327142246348,41.9830523174098 zM39.47327142246348,41.636636926000875 C39.396487924012135,41.636636926000875 39.334280972058224,41.698878095200115 39.334280972058224,41.775627376406135 C39.334280972058224,41.852410874857554 39.39652214125739,41.914617826811394 39.47327142246348,41.914617826811394 C39.550054920914846,41.914617826811394 39.61226187286875,41.852410874857554 39.61226187286875,41.775627376406135 C39.61229609011407,41.698878095200115 39.55008913816016,41.636636926000875 39.47327142246348,41.636636926000875 z" style="color: rgb(0, 0, 0);"/><path fill="#66bb6a" stroke-dashoffset="" fill-rule="nonzero" opacity="1" marker-start="" marker-mid="" marker-end="" id="svg_7" d="M97.34429519472607,29.12856405764783 L103.1724943053751,29.12856405764783 L103.1724943053751,23.30036437222454 L108.65895430312061,23.30036437222454 L108.65895430312061,29.12856405764783 L114.48715111467094,29.12856405764783 L114.48715111467094,34.61502405539306 L108.65895430312061,34.61502405539306 L108.65895430312061,40.443220866943726 L103.1724943053751,40.443220866943726 L103.1724943053751,34.61502405539306 L97.34429519472607,34.61502405539306 L97.34429519472607,29.12856405764783 z" style="color: rgb(0, 0, 0);" class=""/><path fill="#66bb6a" stroke-dashoffset="" fill-rule="nonzero" opacity="0.82" marker-start="" marker-mid="" marker-end="" id="svg_9" d="M112.2907306332526,-32.45682780984471 L113.01925484977714,-32.45682780984471 L113.01925484977714,-33.18535209821595 L113.70506171660959,-33.18535209821595 L113.70506171660959,-32.45682780984471 L114.43358564574702,-32.45682780984471 L114.43358564574702,-31.771020943012193 L113.70506171660959,-31.771020943012193 L113.70506171660959,-31.042497013874726 L113.01925484977714,-31.042497013874726 L113.01925484977714,-31.771020943012193 L112.2907306332526,-31.771020943012193 L112.2907306332526,-32.45682780984471 z" style="color: rgb(0, 0, 0);"/><path fill="#66bb6a" fill-opacity="1" stroke="#000000" stroke-opacity="1" stroke-width="1" stroke-dasharray="none" stroke-linejoin="miter" stroke-linecap="butt" stroke-dashoffset="" fill-rule="nonzero" opacity="1" marker-start="" marker-mid="" marker-end="" id="svg_11" d="M-25.0000066735916,-51.2142891590389 " style="color: rgb(0, 0, 0);"/></g></svg>